<svg id="visual" viewBox="0 0 675 900" width="675" height="900" xmlns="http://www.w3.org/2000/svg" xmlns:xlink="http://www.w3.org/1999/xlink" version="1.1"><rect x="0" y="0" width="675" height="900" fill="#001220"></rect><defs><linearGradient id="grad1_0" x1="0%" y1="0%" x2="100%" y2="100%"><stop offset="30%" stop-color="#1b263b" stop-opacity="1"></stop><stop offset="70%" stop-color="#1b263b" stop-opacity="1"></stop></linearGradient></defs><defs><linearGradient id="grad1_1" x1="0%" y1="0%" x2="100%" y2="100%"><stop offset="30%" stop-color="#1b263b" stop-opacity="1"></stop><stop offset="70%" stop-color="#0e1c2d" stop-opacity="1"></stop></linearGradient></defs><defs><linearGradient id="grad1_2" x1="0%" y1="0%" x2="100%" y2="100%"><stop offset="30%" stop-color="#001220" stop-opacity="1"></stop><stop offset="70%" stop-color="#0e1c2d" stop-opacity="1"></stop></linearGradient></defs><defs><linearGradient id="grad2_0" x1="0%" y1="0%" x2="100%" y2="100%"><stop offset="30%" stop-color="#1b263b" stop-opacity="1"></stop><stop offset="70%" stop-color="#1b263b" stop-opacity="1"></stop></linearGradient></defs><defs><linearGradient id="grad2_1" x1="0%" y1="0%" x2="100%" y2="100%"><stop offset="30%" stop-color="#0e1c2d" stop-opacity="1"></stop><stop offset="70%" stop-color="#1b263b" stop-opacity="1"></stop></linearGradient></defs><defs><linearGradient id="grad2_2" x1="0%" y1="0%" x2="100%" y2="100%"><stop offset="30%" stop-color="#0e1c2d" stop-opacity="1"></stop><stop offset="70%" stop-color="#001220" stop-opacity="1"></stop></linearGradient></defs><g transform="translate(675, 0)"><path d="M0 337.5C-44.3 303.7 -88.5 269.8 -142 246C-195.5 222.1 -258.2 208.1 -292.3 168.8C-326.4 129.4 -332 64.7 -337.5 0L0 0Z" fill="#071727"></path><path d="M0 225C-29.5 202.4 -59 179.9 -94.7 164C-130.3 148 -172.1 138.7 -194.9 112.5C-217.6 86.3 -221.3 43.1 -225 0L0 0Z" fill="#142134"></path><path d="M0 112.5C-14.8 101.2 -29.5 89.9 -47.3 82C-65.2 74 -86.1 69.4 -97.4 56.3C-108.8 43.1 -110.7 21.6 -112.5 0L0 0Z" fill="#1b263b"></path></g><g transform="translate(0, 900)"><path d="M0 -337.5C64.6 -331.9 129.2 -326.3 168.7 -292.3C208.3 -258.3 222.9 -195.9 246.8 -142.5C270.8 -89.1 304.1 -44.5 337.5 0L0 0Z" fill="#071727"></path><path d="M0 -225C43.1 -221.3 86.1 -217.5 112.5 -194.9C138.9 -172.2 148.6 -130.6 164.5 -95C180.5 -59.4 202.8 -29.7 225 0L0 0Z" fill="#142134"></path><path d="M0 -112.5C21.5 -110.6 43.1 -108.8 56.2 -97.4C69.4 -86.1 74.3 -65.3 82.3 -47.5C90.3 -29.7 101.4 -14.8 112.5 0L0 0Z" fill="#1b263b"></path></g></svg>