<svg id="visual" viewBox="0 0 960 540" width="960" height="540" xmlns="http://www.w3.org/2000/svg" xmlns:xlink="http://www.w3.org/1999/xlink" version="1.1"><rect x="0" y="0" width="960" height="540" fill="#001220"></rect><defs><linearGradient id="grad1_0" x1="43.8%" y1="0%" x2="100%" y2="100%"><stop offset="14.444444444444446%" stop-color="#1b263b" stop-opacity="1"></stop><stop offset="85.55555555555554%" stop-color="#1b263b" stop-opacity="1"></stop></linearGradient></defs><defs><linearGradient id="grad1_1" x1="43.8%" y1="0%" x2="100%" y2="100%"><stop offset="14.444444444444446%" stop-color="#1b263b" stop-opacity="1"></stop><stop offset="85.55555555555554%" stop-color="#0e1c2d" stop-opacity="1"></stop></linearGradient></defs><defs><linearGradient id="grad1_2" x1="43.8%" y1="0%" x2="100%" y2="100%"><stop offset="14.444444444444446%" stop-color="#001220" stop-opacity="1"></stop><stop offset="85.55555555555554%" stop-color="#0e1c2d" stop-opacity="1"></stop></linearGradient></defs><defs><linearGradient id="grad2_0" x1="0%" y1="0%" x2="56.3%" y2="100%"><stop offset="14.444444444444446%" stop-color="#1b263b" stop-opacity="1"></stop><stop offset="85.55555555555554%" stop-color="#1b263b" stop-opacity="1"></stop></linearGradient></defs><defs><linearGradient id="grad2_1" x1="0%" y1="0%" x2="56.3%" y2="100%"><stop offset="14.444444444444446%" stop-color="#0e1c2d" stop-opacity="1"></stop><stop offset="85.55555555555554%" stop-color="#1b263b" stop-opacity="1"></stop></linearGradient></defs><defs><linearGradient id="grad2_2" x1="0%" y1="0%" x2="56.3%" y2="100%"><stop offset="14.444444444444446%" stop-color="#0e1c2d" stop-opacity="1"></stop><stop offset="85.55555555555554%" stop-color="#001220" stop-opacity="1"></stop></linearGradient></defs><g transform="translate(960, 0)"><path d="M0 324C-60 317.4 -120 310.9 -162 280.6C-204 250.3 -228 196.2 -252 145.5C-276 94.8 -300 47.4 -324 0L0 0Z" fill="#071727"></path><path d="M0 216C-40 211.6 -80 207.3 -108 187.1C-136 166.9 -152 130.8 -168 97C-184 63.2 -200 31.6 -216 0L0 0Z" fill="#142134"></path><path d="M0 108C-20 105.8 -40 103.6 -54 93.5C-68 83.4 -76 65.4 -84 48.5C-92 31.6 -100 15.8 -108 0L0 0Z" fill="#1b263b"></path></g><g transform="translate(0, 540)"><path d="M0 -324C59.2 -317 118.4 -310 162 -280.6C205.6 -251.2 233.7 -199.5 258.1 -149C282.5 -98.5 303.2 -49.3 324 0L0 0Z" fill="#071727"></path><path d="M0 -216C39.5 -211.3 78.9 -206.6 108 -187.1C137.1 -167.5 155.8 -133 172.1 -99.3C188.3 -65.7 202.2 -32.8 216 0L0 0Z" fill="#142134"></path><path d="M0 -108C19.7 -105.7 39.5 -103.3 54 -93.5C68.5 -83.7 77.9 -66.5 86 -49.7C94.2 -32.8 101.1 -16.4 108 0L0 0Z" fill="#1b263b"></path></g></svg>