<svg id="visual" viewBox="0 0 1920 200" width="1920" height="200" xmlns="http://www.w3.org/2000/svg" xmlns:xlink="http://www.w3.org/1999/xlink" version="1.1"><path d="M0 86L32 91.3C64 96.7 128 107.3 192 110.2C256 113 320 108 384 102.7C448 97.3 512 91.7 576 93C640 94.3 704 102.7 768 99.7C832 96.7 896 82.3 960 80.8C1024 79.3 1088 90.7 1152 97C1216 103.3 1280 104.7 1344 99.3C1408 94 1472 82 1536 77.5C1600 73 1664 76 1728 82.5C1792 89 1856 99 1888 104L1920 109L1920 201L1888 201C1856 201 1792 201 1728 201C1664 201 1600 201 1536 201C1472 201 1408 201 1344 201C1280 201 1216 201 1152 201C1088 201 1024 201 960 201C896 201 832 201 768 201C704 201 640 201 576 201C512 201 448 201 384 201C320 201 256 201 192 201C128 201 64 201 32 201L0 201Z" fill="#001220"></path><path d="M0 114L32 111.2C64 108.3 128 102.7 192 101.8C256 101 320 105 384 105.5C448 106 512 103 576 100.8C640 98.7 704 97.3 768 95.8C832 94.3 896 92.7 960 97.5C1024 102.3 1088 113.7 1152 119.8C1216 126 1280 127 1344 123.8C1408 120.7 1472 113.3 1536 110.3C1600 107.3 1664 108.7 1728 111C1792 113.3 1856 116.7 1888 118.3L1920 120L1920 201L1888 201C1856 201 1792 201 1728 201C1664 201 1600 201 1536 201C1472 201 1408 201 1344 201C1280 201 1216 201 1152 201C1088 201 1024 201 960 201C896 201 832 201 768 201C704 201 640 201 576 201C512 201 448 201 384 201C320 201 256 201 192 201C128 201 64 201 32 201L0 201Z" fill="#051523"></path><path d="M0 115L32 116.3C64 117.7 128 120.3 192 120.3C256 120.3 320 117.7 384 121.7C448 125.7 512 136.3 576 140.5C640 144.7 704 142.3 768 138C832 133.7 896 127.3 960 127.2C1024 127 1088 133 1152 137.2C1216 141.3 1280 143.7 1344 144.5C1408 145.3 1472 144.7 1536 142C1600 139.3 1664 134.7 1728 134.2C1792 133.7 1856 137.3 1888 139.2L1920 141L1920 201L1888 201C1856 201 1792 201 1728 201C1664 201 1600 201 1536 201C1472 201 1408 201 1344 201C1280 201 1216 201 1152 201C1088 201 1024 201 960 201C896 201 832 201 768 201C704 201 640 201 576 201C512 201 448 201 384 201C320 201 256 201 192 201C128 201 64 201 32 201L0 201Z" fill="#091726"></path><path d="M0 137L32 138C64 139 128 141 192 143C256 145 320 147 384 150.7C448 154.3 512 159.7 576 158C640 156.3 704 147.7 768 144.3C832 141 896 143 960 144.5C1024 146 1088 147 1152 147.7C1216 148.3 1280 148.7 1344 150.7C1408 152.7 1472 156.3 1536 159.3C1600 162.3 1664 164.7 1728 164.5C1792 164.3 1856 161.7 1888 160.3L1920 159L1920 201L1888 201C1856 201 1792 201 1728 201C1664 201 1600 201 1536 201C1472 201 1408 201 1344 201C1280 201 1216 201 1152 201C1088 201 1024 201 960 201C896 201 832 201 768 201C704 201 640 201 576 201C512 201 448 201 384 201C320 201 256 201 192 201C128 201 64 201 32 201L0 201Z" fill="#0d1a29"></path><path d="M0 163L32 166.5C64 170 128 177 192 177.8C256 178.7 320 173.3 384 171.3C448 169.3 512 170.7 576 173.7C640 176.7 704 181.3 768 183.3C832 185.3 896 184.7 960 183C1024 181.3 1088 178.7 1152 178.8C1216 179 1280 182 1344 181C1408 180 1472 175 1536 172.3C1600 169.7 1664 169.3 1728 169.7C1792 170 1856 171 1888 171.5L1920 172L1920 201L1888 201C1856 201 1792 201 1728 201C1664 201 1600 201 1536 201C1472 201 1408 201 1344 201C1280 201 1216 201 1152 201C1088 201 1024 201 960 201C896 201 832 201 768 201C704 201 640 201 576 201C512 201 448 201 384 201C320 201 256 201 192 201C128 201 64 201 32 201L0 201Z" fill="#101c2c"></path></svg>